<?xml version="1.0" standalone="no"?>
<!DOCTYPE svg PUBLIC "-//W3C//DTD SVG 20010904//EN"
 "http://www.w3.org/TR/2001/REC-SVG-20010904/DTD/svg10.dtd">
<svg version="1.0" xmlns="http://www.w3.org/2000/svg"
 width="2752.000000pt" height="1536.000000pt" viewBox="0 0 2752.000000 1536.000000"
 preserveAspectRatio="xMidYMid meet">
<metadata>
Created by potrace 1.16, written by Peter Selinger 2001-2019
</metadata>
<g transform="translate(0.000000,1536.000000) scale(0.100000,-0.100000)"
fill="none" stroke="#c2a24d" stroke-width="20">
<path d="M11426 14545 c-70 -25 -116 -72 -161 -168 -19 -41 -55 -65 -168 -113
-119 -50 -176 -118 -177 -207 0 -84 46 -141 157 -194 60 -28 88 -51 160 -128
49 -52 124 -125 168 -163 121 -104 157 -183 189 -411 18 -124 33 -158 156
-345 50 -76 94 -151 97 -167 5 -27 2 -30 -78 -67 -46 -22 -97 -53 -113 -71
-16 -17 -64 -97 -106 -178 -41 -82 -81 -148 -88 -148 -21 0 -151 174 -163 217
-7 29 -7 64 1 129 14 109 5 144 -55 208 -23 25 -74 90 -114 143 -83 113 -110
134 -186 150 -69 14 -181 -6 -305 -53 -137 -52 -179 -107 -165 -214 l6 -52
-123 -60 c-127 -62 -453 -244 -568 -318 -170 -109 -205 -205 -128 -347 l33
-60 -40 -32 c-129 -102 -204 -198 -250 -320 -43 -115 -49 -198 -40 -611 5
-209 9 -414 9 -455 l1 -74 -75 -19 c-58 -15 -129 -21 -310 -26 -217 -6 -239
-8 -288 -30 -67 -30 -108 -78 -170 -200 -82 -161 -162 -437 -162 -560 0 -60
28 -150 79 -256 27 -55 51 -107 54 -116 10 -31 -40 -114 -121 -202 -89 -96
-102 -124 -102 -222 0 -80 25 -294 50 -430 58 -319 130 -439 322 -535 55 -27
109 -50 119 -50 29 0 89 -27 89 -40 0 -6 -21 -59 -46 -118 -59 -135 -62 -179
-15 -272 31 -60 32 -65 16 -75 -61 -35 -102 -77 -134 -135 -51 -94 -51 -158 3
-264 21 -42 36 -79 33 -82 -3 -3 -31 3 -62 15 -113 42 -149 32 -362 -110 -160
-108 -173 -137 -173 -393 0 -201 12 -296 43 -348 12 -20 63 -83 114 -140 51
-57 123 -148 161 -203 79 -116 147 -171 224 -181 83 -11 128 36 137 144 6 65
7 67 35 70 15 2 39 1 51 -2 24 -6 145 -93 145 -104 0 -4 -22 -17 -49 -30 -83
-38 -111 -111 -72 -193 33 -69 154 -211 220 -258 85 -59 126 -71 245 -71 55 0
119 -5 141 -11 59 -16 121 -88 190 -220 140 -271 259 -420 384 -482 63 -31 70
-32 181 -31 77 1 148 8 214 23 189 41 230 27 255 -84 18 -81 91 -242 142 -315
40 -57 140 -149 299 -275 122 -96 169 -144 241 -246 102 -144 154 -181 279
-194 62 -7 68 -10 113 -57 62 -66 67 -87 31 -134 -21 -27 -28 -46 -27 -76 3
-70 37 -121 155 -230 216 -201 250 -282 248 -605 -1 -247 6 -280 69 -343 57
-57 249 -154 466 -235 215 -81 378 -163 448 -226 32 -28 94 -96 137 -149 149
-184 246 -194 367 -38 110 144 110 189 -2 348 -104 148 -108 203 -22 370 75
147 82 191 71 413 -5 100 -9 239 -9 308 l0 127 92 178 c50 99 96 199 103 223
15 56 6 102 -26 140 -23 28 -254 221 -503 421 -58 47 -107 92 -108 100 -3 15
63 101 238 312 47 57 99 123 116 148 17 25 63 86 102 135 85 107 152 233 181
337 11 41 31 146 44 232 17 114 29 165 43 184 11 15 64 50 118 79 167 87 213
138 340 378 33 61 102 182 155 270 53 88 125 211 160 273 58 103 74 122 162
199 131 113 159 167 169 323 12 182 50 268 177 404 48 51 129 138 180 194 68
74 100 102 117 102 52 0 283 -314 285 -387 0 -6 -19 -33 -42 -60 -115 -133
-147 -346 -82 -542 37 -113 88 -189 203 -301 110 -108 183 -155 259 -170 91
-17 158 9 261 104 87 79 153 124 243 164 l83 36 230 6 c291 8 295 9 374 167
17 35 41 69 54 77 12 9 67 27 122 42 153 40 173 55 224 164 35 74 40 132 16
220 -8 30 -17 82 -21 115 -8 78 18 148 83 229 104 127 115 147 110 193 -7 62
-37 96 -184 205 -165 122 -213 165 -270 245 -57 80 -77 140 -70 205 15 125 90
198 202 198 69 0 120 -16 270 -83 233 -104 281 -119 390 -124 117 -6 179 7
287 64 133 69 191 143 228 289 11 42 20 101 20 131 0 94 37 148 120 179 70 25
147 32 235 22 95 -11 127 -2 155 44 26 43 26 116 0 236 -15 70 -20 123 -18
219 2 110 -1 134 -18 173 -29 64 -65 91 -255 186 -92 46 -253 129 -356 185
-252 136 -458 247 -515 277 -82 42 -145 33 -238 -34 -30 -22 -43 -25 -93 -22
-77 6 -114 41 -158 152 -51 129 -96 212 -136 254 -21 21 -83 65 -138 97 -55
32 -110 67 -122 78 -15 13 -38 70 -68 166 -58 184 -64 199 -89 236 -29 43 -55
63 -98 76 -61 19 -107 0 -168 -71 -62 -72 -74 -74 -174 -25 -51 25 -109 42
-208 60 -301 56 -337 79 -449 282 -102 184 -142 208 -384 233 -60 7 -137 18
-170 27 -126 31 -227 108 -301 231 -120 200 -185 260 -424 391 -80 44 -156 91
-170 106 -24 25 -24 26 -12 123 22 176 10 255 -45 300 -15 13 -68 41 -118 63
-123 54 -162 95 -221 228 -59 135 -122 231 -182 274 -26 19 -114 71 -197 116
-82 46 -190 114 -240 151 -120 92 -211 138 -390 200 -82 28 -169 63 -192 76
-88 51 -130 137 -153 313 -22 162 -79 256 -183 301 -65 29 -221 39 -305 20
-68 -15 -206 -72 -357 -148 -138 -69 -162 -76 -191 -58 -12 8 -56 63 -99 123
-146 201 -185 240 -255 253 -23 4 -53 2 -74 -5z m86 -207 c17 -18 57 -72 88
-119 62 -91 140 -168 203 -200 76 -39 202 -17 323 58 209 128 247 143 377 143
148 0 189 -28 206 -141 30 -189 71 -308 131 -382 59 -70 137 -111 363 -191
157 -55 215 -86 342 -181 55 -41 159 -105 230 -142 164 -84 244 -159 289 -268
71 -172 174 -294 311 -367 39 -21 76 -41 83 -46 10 -7 10 -26 -3 -100 -19
-107 -11 -171 29 -250 35 -69 83 -106 253 -198 178 -95 249 -157 330 -289 79
-127 104 -156 192 -223 128 -98 161 -110 417 -145 93 -14 180 -30 192 -36 13
-7 44 -56 75 -119 41 -84 66 -121 117 -172 105 -106 210 -151 455 -195 50 -9
131 -29 180 -45 185 -60 218 -60 296 7 43 36 54 42 65 31 7 -7 26 -65 43 -130
16 -64 36 -129 45 -145 31 -57 91 -111 243 -217 99 -69 112 -84 153 -184 108
-260 179 -334 335 -349 78 -7 144 8 203 48 23 16 49 29 57 29 20 0 281 -127
330 -160 55 -38 436 -237 515 -270 63 -26 198 -111 212 -133 4 -6 7 -62 7
-124 0 -63 5 -149 12 -193 6 -44 9 -86 6 -94 -4 -10 -32 -15 -104 -18 -175 -8
-328 -89 -383 -203 -17 -35 -24 -74 -30 -164 -9 -142 -24 -178 -96 -234 -74
-57 -144 -80 -239 -81 -100 0 -186 26 -333 100 -212 108 -348 131 -477 83
-109 -40 -208 -166 -236 -300 -18 -86 -6 -161 42 -258 36 -75 57 -101 159
-201 64 -63 153 -142 198 -175 45 -33 84 -68 87 -77 4 -11 -9 -36 -35 -70
-107 -134 -143 -286 -105 -443 21 -85 20 -168 -2 -188 -10 -8 -49 -23 -86 -31
-116 -27 -161 -52 -236 -132 -48 -50 -73 -86 -81 -113 -15 -57 -39 -62 -234
-54 -115 4 -178 2 -216 -7 -84 -19 -226 -90 -320 -160 -127 -95 -200 -140
-227 -140 -59 0 -183 91 -241 177 -91 134 -118 221 -110 354 6 94 24 143 76
203 80 90 93 187 41 296 -76 161 -267 392 -357 432 -55 25 -116 17 -176 -23
-132 -88 -450 -487 -506 -636 -22 -59 -45 -207 -35 -223 3 -5 3 -26 -1 -47 -7
-37 -72 -112 -164 -188 -58 -48 -91 -98 -213 -315 -63 -113 -139 -245 -169
-295 -30 -49 -81 -141 -113 -203 -32 -62 -72 -128 -89 -147 -19 -22 -72 -55
-141 -89 -206 -100 -226 -133 -259 -421 -17 -146 -35 -213 -78 -298 -44 -88
-332 -463 -556 -726 -44 -51 -83 -104 -87 -118 -14 -58 22 -95 320 -324 60
-46 139 -111 175 -144 36 -33 91 -82 123 -108 31 -27 57 -56 57 -66 0 -9 -35
-87 -79 -172 -51 -102 -85 -181 -96 -230 -20 -88 -22 -234 -5 -466 14 -194 8
-235 -54 -355 -63 -121 -79 -178 -74 -257 7 -82 42 -170 108 -266 27 -41 50
-81 50 -89 0 -17 -57 -86 -71 -86 -5 0 -35 32 -66 72 -188 234 -239 266 -707
445 -217 82 -326 134 -358 170 -15 17 -17 45 -16 238 2 196 -1 228 -19 296
-43 154 -118 266 -269 405 l-94 87 25 43 c49 84 28 173 -70 296 -37 46 -63 66
-127 98 -51 25 -94 40 -118 40 -69 0 -92 16 -145 97 -70 107 -125 172 -187
218 -297 222 -414 346 -453 480 -46 159 -58 193 -83 230 -15 22 -47 53 -71 70
-42 29 -46 30 -154 29 -73 0 -150 -8 -220 -22 -59 -12 -131 -22 -158 -22 -130
0 -213 93 -430 484 -61 110 -135 188 -217 228 -62 31 -74 33 -202 38 -155 6
-161 8 -246 98 -56 58 -71 90 -48 99 45 17 319 -46 449 -103 134 -60 156 -66
212 -61 95 10 141 65 130 155 -3 26 -22 89 -42 141 -37 95 -49 171 -29 178 14
5 106 -115 169 -219 52 -88 85 -118 126 -118 37 0 92 49 113 100 24 59 38 254
34 463 -3 170 -5 188 -24 214 -58 77 -130 92 -229 45 -120 -57 -139 -51 -154
47 -13 79 -31 107 -84 132 -54 24 -93 24 -170 -2 -132 -44 -224 -118 -258
-208 -28 -77 -20 -103 58 -177 l65 -61 -79 -55 c-183 -129 -256 -150 -327 -93
-76 62 -96 72 -155 85 -119 25 -229 -12 -269 -90 -12 -25 -27 -45 -32 -45 -5
0 -26 27 -48 60 -21 33 -76 101 -121 150 -101 112 -130 153 -142 202 -10 46
-12 363 -1 380 16 26 238 173 261 173 14 0 54 -15 90 -32 123 -61 235 -39 262
53 17 54 -12 181 -58 257 -61 101 -56 117 54 192 38 26 83 66 101 90 29 37 33
49 27 79 -8 44 -29 85 -68 134 l-31 38 23 52 c50 113 81 209 81 248 0 87 -43
137 -139 165 -183 53 -192 57 -245 105 -93 85 -133 197 -170 484 -9 66 -19
165 -22 220 l-7 100 56 58 c30 32 81 97 113 144 58 84 59 86 59 157 0 68 -3
77 -67 205 -85 167 -86 179 -24 426 39 152 51 188 93 258 72 121 67 119 356
129 353 12 457 40 499 136 23 51 23 71 -2 617 -16 343 1 513 63 617 30 50 86
110 181 192 105 91 118 151 54 252 -45 72 -43 92 17 130 28 18 82 55 120 82
39 27 174 103 300 167 248 127 264 137 330 197 52 48 69 85 62 138 -3 24 0 43
7 48 25 21 160 62 202 62 53 0 59 -5 174 -151 l74 -94 1 -125 c2 -163 16 -199
135 -350 130 -164 155 -181 236 -158 61 16 102 69 173 223 36 77 74 150 85
163 11 13 65 46 119 75 129 67 147 88 147 175 0 84 -32 155 -129 292 -93 129
-99 144 -122 277 -20 122 -62 261 -103 340 -38 76 -81 123 -179 198 -51 39
-124 109 -166 159 -57 66 -93 98 -141 125 -36 20 -65 43 -65 50 0 16 2 17 125
74 113 52 134 72 179 166 19 39 41 71 49 71 8 0 28 -15 44 -32z m-1822 -8207
c17 -63 70 -133 120 -158 54 -28 92 -29 195 -3 61 15 81 17 88 7 11 -16 -2
-299 -14 -312 -7 -7 -18 0 -32 20 -70 97 -126 152 -180 179 -54 27 -61 28
-100 16 -86 -25 -107 -55 -127 -174 -12 -72 0 -136 42 -238 17 -43 29 -81 25
-84 -3 -3 -58 14 -121 39 -64 25 -146 53 -183 61 -38 9 -93 21 -123 28 -30 7
-53 18 -51 23 2 6 22 17 45 26 50 19 162 90 278 177 71 53 91 73 104 108 30
80 7 140 -76 200 -28 20 -50 40 -50 45 0 14 103 79 127 79 17 0 25 -9 33 -39z"/>
</g>
</svg>
