<svg xmlns="http://www.w3.org/2000/svg" xmlns:xlink="http://www.w3.org/1999/xlink" width="2000" zoomAndPan="magnify" viewBox="0 0 1500 1499.999933" height="2000" preserveAspectRatio="xMidYMid meet" version="1.0"><defs><g/><clipPath id="9e3e11ba8f"><path d="M 0.480469 243 L 54 243 L 54 335.960938 L 0.480469 335.960938 Z M 0.480469 243 " clip-rule="nonzero"/></clipPath><clipPath id="be77436e47"><rect x="0" width="54" y="0" height="93"/></clipPath><clipPath id="5ae8accade"><path d="M 165 243 L 219 243 L 219 335.960938 L 165 335.960938 Z M 165 243 " clip-rule="nonzero"/></clipPath><clipPath id="a0f95d9b77"><rect x="0" width="54" y="0" height="93"/></clipPath><clipPath id="9098b0497b"><path d="M 339 243 L 377 243 L 377 335.960938 L 339 335.960938 Z M 339 243 " clip-rule="nonzero"/></clipPath><clipPath id="9d81a3916f"><rect x="0" width="38" y="0" height="93"/></clipPath><clipPath id="2c892e8893"><path d="M 495 243 L 549 243 L 549 335.960938 L 495 335.960938 Z M 495 243 " clip-rule="nonzero"/></clipPath><clipPath id="125a99278e"><rect x="0" width="54" y="0" height="93"/></clipPath><clipPath id="3cb735cab8"><path d="M 654 243 L 724 243 L 724 335.960938 L 654 335.960938 Z M 654 243 " clip-rule="nonzero"/></clipPath><clipPath id="261dd6c3e0"><rect x="0" width="70" y="0" height="93"/></clipPath><clipPath id="343b4dba93"><path d="M 830 243 L 877 243 L 877 335.960938 L 830 335.960938 Z M 830 243 " clip-rule="nonzero"/></clipPath><clipPath id="c5495fec30"><rect x="0" width="47" y="0" height="93"/></clipPath><clipPath id="8f143b49b4"><rect x="0" width="1344" y="0" height="336"/></clipPath></defs><g transform="matrix(1, 0, 0, 1, 96, 589)"><g clip-path="url(#8f143b49b4)"><g fill="#d4af3a" fill-opacity="1"><g transform="translate(4.426505, 206.593937)"><g><path d="M 44.171875 -202.296875 L 113.71875 -41.625 L 183.515625 -202.296875 L 222.359375 0 L 200.53125 0 L 175.90625 -129.453125 L 175.390625 -129.453125 L 113.71875 7.875 L 52.28125 -129.453125 L 51.78125 -129.453125 L 27.15625 0 L 5.328125 0 Z M 10.65625 -191.390625 Z M 10.65625 -191.390625 "/></g></g></g><g fill="#d4af3a" fill-opacity="1"><g transform="translate(231.850035, 206.593937)"><g><path d="M 8.625 -59.390625 C 8.625 -70.734375 11.414062 -81.3125 17 -91.125 C 22.582031 -100.9375 30.195312 -108.632812 39.84375 -114.21875 C 49.488281 -119.800781 59.984375 -122.59375 71.328125 -122.59375 C 82.660156 -122.59375 93.109375 -119.800781 102.671875 -114.21875 C 112.234375 -108.632812 119.847656 -100.976562 125.515625 -91.25 C 131.179688 -81.519531 134.015625 -70.898438 134.015625 -59.390625 C 134.015625 -48.054688 131.222656 -37.523438 125.640625 -27.796875 C 120.054688 -18.066406 112.441406 -10.453125 102.796875 -4.953125 C 93.148438 0.546875 82.660156 3.296875 71.328125 3.296875 C 59.984375 3.296875 49.445312 0.503906 39.71875 -5.078125 C 29.988281 -10.660156 22.375 -18.316406 16.875 -28.046875 C 11.375 -37.773438 8.625 -48.222656 8.625 -59.390625 Z M 71.078125 -103.8125 C 59.054688 -103.8125 49.023438 -99.535156 40.984375 -90.984375 C 32.953125 -82.441406 28.9375 -72 28.9375 -59.65625 C 28.9375 -50.507812 31.132812 -42.425781 35.53125 -35.40625 C 39.9375 -28.382812 45.3125 -23.304688 51.65625 -20.171875 C 58 -17.046875 64.554688 -15.484375 71.328125 -15.484375 C 79.109375 -15.484375 86.210938 -17.300781 92.640625 -20.9375 C 99.078125 -24.570312 104.195312 -29.816406 108 -36.671875 C 111.8125 -43.523438 113.71875 -51.1875 113.71875 -59.65625 C 113.71875 -67.4375 111.984375 -74.707031 108.515625 -81.46875 C 105.046875 -88.238281 100.007812 -93.65625 93.40625 -97.71875 C 86.8125 -101.78125 79.367188 -103.8125 71.078125 -103.8125 Z M 71.078125 -103.8125 "/></g></g></g><g fill="#d4af3a" fill-opacity="1"><g transform="translate(374.497401, 206.593937)"><g><path d="M 114.734375 0 L 94.421875 0 L 94.421875 -69.546875 C 94.421875 -81.566406 92.601562 -90.28125 88.96875 -95.6875 C 85.332031 -101.101562 78.773438 -103.8125 69.296875 -103.8125 C 58.460938 -103.8125 50.800781 -100.085938 46.3125 -92.640625 C 41.832031 -85.203125 39.59375 -73.867188 39.59375 -58.640625 L 39.59375 0 L 19.296875 0 L 19.296875 -119.296875 L 39.59375 -119.296875 L 39.59375 -104.828125 L 40.109375 -104.828125 C 44.335938 -110.585938 49.203125 -114.988281 54.703125 -118.03125 C 60.203125 -121.070312 66.675781 -122.59375 74.125 -122.59375 C 87.488281 -122.59375 97.597656 -118.488281 104.453125 -110.28125 C 111.304688 -102.082031 114.734375 -89.351562 114.734375 -72.09375 Z M 114.734375 0 "/></g></g></g><g fill="#d4af3a" fill-opacity="1"><g transform="translate(508.514827, 206.593937)"><g><path d="M 40.609375 -162.203125 L 40.609375 -119.296875 L 61.9375 -119.296875 L 61.9375 -100.515625 L 40.609375 -100.515625 L 40.609375 0 L 20.3125 0 L 20.3125 -100.515625 L 7.875 -100.515625 L 7.875 -119.296875 L 20.3125 -119.296875 L 20.3125 -162.203125 Z M 40.609375 -162.203125 "/></g></g></g><g fill="#d4af3a" fill-opacity="1"><g transform="translate(569.431857, 206.593937)"><g><path d="M 123.109375 -55.328125 L 29.4375 -55.328125 C 29.78125 -43.484375 33.671875 -33.878906 41.109375 -26.515625 C 48.554688 -19.160156 57.695312 -15.484375 68.53125 -15.484375 C 76.144531 -15.484375 82.867188 -17.425781 88.703125 -21.3125 C 94.546875 -25.207031 99.921875 -31.472656 104.828125 -40.109375 L 122.09375 -30.203125 C 116.34375 -19.546875 108.769531 -11.296875 99.375 -5.453125 C 89.976562 0.378906 79.191406 3.296875 67.015625 3.296875 C 55.335938 3.296875 45.015625 0.503906 36.046875 -5.078125 C 27.078125 -10.660156 20.265625 -18.144531 15.609375 -27.53125 C 10.953125 -36.925781 8.625 -47.125 8.625 -58.125 C 8.625 -70.3125 10.953125 -81.3125 15.609375 -91.125 C 20.265625 -100.9375 26.988281 -108.632812 35.78125 -114.21875 C 44.582031 -119.800781 54.820312 -122.59375 66.5 -122.59375 C 77.84375 -122.59375 87.867188 -119.84375 96.578125 -114.34375 C 105.296875 -108.84375 111.9375 -101.269531 116.5 -91.625 C 121.070312 -81.976562 123.359375 -71.148438 123.359375 -59.140625 C 123.359375 -57.953125 123.273438 -56.679688 123.109375 -55.328125 Z M 101.78125 -72.59375 C 100.09375 -81.90625 95.945312 -89.4375 89.34375 -95.1875 C 82.75 -100.9375 75.21875 -103.8125 66.75 -103.8125 C 58.457031 -103.8125 50.671875 -100.804688 43.390625 -94.796875 C 36.117188 -88.796875 31.804688 -81.394531 30.453125 -72.59375 Z M 101.78125 -72.59375 "/></g></g></g><g fill="#d4af3a" fill-opacity="1"><g transform="translate(701.164921, 206.593937)"><g><path d="M 114.734375 0 L 94.421875 0 L 94.421875 -69.546875 C 94.421875 -81.566406 92.601562 -90.28125 88.96875 -95.6875 C 85.332031 -101.101562 78.773438 -103.8125 69.296875 -103.8125 C 58.460938 -103.8125 50.800781 -100.085938 46.3125 -92.640625 C 41.832031 -85.203125 39.59375 -73.867188 39.59375 -58.640625 L 39.59375 0 L 19.296875 0 L 19.296875 -119.296875 L 39.59375 -119.296875 L 39.59375 -104.828125 L 40.109375 -104.828125 C 44.335938 -110.585938 49.203125 -114.988281 54.703125 -118.03125 C 60.203125 -121.070312 66.675781 -122.59375 74.125 -122.59375 C 87.488281 -122.59375 97.597656 -118.488281 104.453125 -110.28125 C 111.304688 -102.082031 114.734375 -89.351562 114.734375 -72.09375 Z M 114.734375 0 "/></g></g></g><g fill="#d4af3a" fill-opacity="1"><g transform="translate(835.182348, 206.593937)"><g><path d="M 123.109375 -55.328125 L 29.4375 -55.328125 C 29.78125 -43.484375 33.671875 -33.878906 41.109375 -26.515625 C 48.554688 -19.160156 57.695312 -15.484375 68.53125 -15.484375 C 76.144531 -15.484375 82.867188 -17.425781 88.703125 -21.3125 C 94.546875 -25.207031 99.921875 -31.472656 104.828125 -40.109375 L 122.09375 -30.203125 C 116.34375 -19.546875 108.769531 -11.296875 99.375 -5.453125 C 89.976562 0.378906 79.191406 3.296875 67.015625 3.296875 C 55.335938 3.296875 45.015625 0.503906 36.046875 -5.078125 C 27.078125 -10.660156 20.265625 -18.144531 15.609375 -27.53125 C 10.953125 -36.925781 8.625 -47.125 8.625 -58.125 C 8.625 -70.3125 10.953125 -81.3125 15.609375 -91.125 C 20.265625 -100.9375 26.988281 -108.632812 35.78125 -114.21875 C 44.582031 -119.800781 54.820312 -122.59375 66.5 -122.59375 C 77.84375 -122.59375 87.867188 -119.84375 96.578125 -114.34375 C 105.296875 -108.84375 111.9375 -101.269531 116.5 -91.625 C 121.070312 -81.976562 123.359375 -71.148438 123.359375 -59.140625 C 123.359375 -57.953125 123.273438 -56.679688 123.109375 -55.328125 Z M 101.78125 -72.59375 C 100.09375 -81.90625 95.945312 -89.4375 89.34375 -95.1875 C 82.75 -100.9375 75.21875 -103.8125 66.75 -103.8125 C 58.457031 -103.8125 50.671875 -100.804688 43.390625 -94.796875 C 36.117188 -88.796875 31.804688 -81.394531 30.453125 -72.59375 Z M 101.78125 -72.59375 "/></g></g></g><g fill="#d4af3a" fill-opacity="1"><g transform="translate(966.915461, 206.593937)"><g><path d="M 106.609375 -102.296875 L 106.609375 -119.296875 L 126.90625 -119.296875 L 126.90625 4.3125 C 126.90625 24.28125 121.320312 39.632812 110.15625 50.375 C 98.988281 61.125 85.113281 66.5 68.53125 66.5 C 51.613281 66.5 37.695312 61.460938 26.78125 51.390625 C 15.863281 41.328125 10.238281 28.085938 9.90625 11.671875 L 30.203125 11.671875 C 30.203125 22.160156 33.710938 30.789062 40.734375 37.5625 C 47.753906 44.332031 57.019531 47.71875 68.53125 47.71875 C 81.050781 47.71875 90.523438 43.828125 96.953125 36.046875 C 103.390625 28.265625 106.609375 15.40625 106.609375 -2.53125 L 106.609375 -16.5 L 106.09375 -16.5 C 101.363281 -10.40625 95.316406 -5.582031 87.953125 -2.03125 C 80.585938 1.519531 72.84375 3.296875 64.71875 3.296875 C 53.726562 3.296875 43.914062 0.503906 35.28125 -5.078125 C 26.65625 -10.660156 19.929688 -18.234375 15.109375 -27.796875 C 10.285156 -37.359375 7.875 -47.804688 7.875 -59.140625 C 7.875 -70.816406 10.367188 -81.519531 15.359375 -91.25 C 20.347656 -100.976562 27.242188 -108.632812 36.046875 -114.21875 C 44.847656 -119.800781 54.660156 -122.59375 65.484375 -122.59375 C 73.773438 -122.59375 81.390625 -120.816406 88.328125 -117.265625 C 95.265625 -113.710938 101.1875 -108.722656 106.09375 -102.296875 Z M 67.515625 -103.8125 C 60.410156 -103.8125 53.894531 -101.945312 47.96875 -98.21875 C 42.050781 -94.5 37.359375 -89.296875 33.890625 -82.609375 C 30.421875 -75.929688 28.6875 -68.703125 28.6875 -60.921875 C 28.6875 -47.890625 32.320312 -37.054688 39.59375 -28.421875 C 46.875 -19.796875 56.265625 -15.484375 67.765625 -15.484375 C 79.785156 -15.484375 89.429688 -19.710938 96.703125 -28.171875 C 103.984375 -36.628906 107.625 -47.460938 107.625 -60.671875 C 107.625 -73.359375 103.859375 -83.71875 96.328125 -91.75 C 88.796875 -99.789062 79.191406 -103.8125 67.515625 -103.8125 Z M 67.515625 -103.8125 "/></g></g></g><g fill="#d4af3a" fill-opacity="1"><g transform="translate(1114.131549, 206.593937)"><g><path d="M 74.125 -98.484375 C 72.09375 -100.003906 70.1875 -101.269531 68.40625 -102.28125 C 66.625 -103.300781 64.46875 -103.8125 61.9375 -103.8125 C 54.320312 -103.8125 48.523438 -100.425781 44.546875 -93.65625 C 40.566406 -86.894531 38.578125 -75.984375 38.578125 -60.921875 L 38.578125 0 L 18.28125 0 L 18.28125 -119.296875 L 38.578125 -119.296875 L 38.578125 -106.359375 L 39.09375 -106.359375 C 44 -112.953125 48.351562 -117.304688 52.15625 -119.421875 C 55.96875 -121.535156 60.410156 -122.59375 65.484375 -122.59375 C 68.535156 -122.59375 71.625 -122.082031 74.75 -121.0625 C 77.882812 -120.050781 80.890625 -118.703125 83.765625 -117.015625 Z M 74.125 -98.484375 "/></g></g></g><g fill="#d4af3a" fill-opacity="1"><g transform="translate(1194.592487, 206.593937)"><g><path d="M 8.625 -59.390625 C 8.625 -70.734375 11.414062 -81.3125 17 -91.125 C 22.582031 -100.9375 30.195312 -108.632812 39.84375 -114.21875 C 49.488281 -119.800781 59.984375 -122.59375 71.328125 -122.59375 C 82.660156 -122.59375 93.109375 -119.800781 102.671875 -114.21875 C 112.234375 -108.632812 119.847656 -100.976562 125.515625 -91.25 C 131.179688 -81.519531 134.015625 -70.898438 134.015625 -59.390625 C 134.015625 -48.054688 131.222656 -37.523438 125.640625 -27.796875 C 120.054688 -18.066406 112.441406 -10.453125 102.796875 -4.953125 C 93.148438 0.546875 82.660156 3.296875 71.328125 3.296875 C 59.984375 3.296875 49.445312 0.503906 39.71875 -5.078125 C 29.988281 -10.660156 22.375 -18.316406 16.875 -28.046875 C 11.375 -37.773438 8.625 -48.222656 8.625 -59.390625 Z M 71.078125 -103.8125 C 59.054688 -103.8125 49.023438 -99.535156 40.984375 -90.984375 C 32.953125 -82.441406 28.9375 -72 28.9375 -59.65625 C 28.9375 -50.507812 31.132812 -42.425781 35.53125 -35.40625 C 39.9375 -28.382812 45.3125 -23.304688 51.65625 -20.171875 C 58 -17.046875 64.554688 -15.484375 71.328125 -15.484375 C 79.109375 -15.484375 86.210938 -17.300781 92.640625 -20.9375 C 99.078125 -24.570312 104.195312 -29.816406 108 -36.671875 C 111.8125 -43.523438 113.71875 -51.1875 113.71875 -59.65625 C 113.71875 -67.4375 111.984375 -74.707031 108.515625 -81.46875 C 105.046875 -88.238281 100.007812 -93.65625 93.40625 -97.71875 C 86.8125 -101.78125 79.367188 -103.8125 71.078125 -103.8125 Z M 71.078125 -103.8125 "/></g></g></g><g clip-path="url(#9e3e11ba8f)"><g transform="matrix(1, 0, 0, 1, 0.000000000000014211, 243)"><g clip-path="url(#be77436e47)"><g fill="#d4af3a" fill-opacity="1"><g transform="translate(1.40912, 74.417571)"><g><path d="M 38.515625 -55.921875 C 36.972656 -58.617188 35.265625 -60.550781 33.390625 -61.71875 C 31.515625 -62.882812 29.257812 -63.46875 26.625 -63.46875 C 23.25 -63.46875 20.46875 -62.421875 18.28125 -60.328125 C 16.101562 -58.242188 15.015625 -55.703125 15.015625 -52.703125 C 15.015625 -50.359375 15.921875 -48.359375 17.734375 -46.703125 C 19.546875 -45.046875 21.738281 -43.632812 24.3125 -42.46875 C 26.894531 -41.300781 29.226562 -40.285156 31.3125 -39.421875 C 33.40625 -38.566406 35.832031 -37.28125 38.59375 -35.5625 C 41.363281 -33.84375 43.484375 -31.691406 44.953125 -29.109375 C 46.429688 -26.535156 47.171875 -23.585938 47.171875 -20.265625 C 47.171875 -16.460938 46.21875 -12.898438 44.3125 -9.578125 C 42.40625 -6.265625 39.765625 -3.640625 36.390625 -1.703125 C 33.015625 0.234375 29.328125 1.203125 25.328125 1.203125 C 19.867188 1.203125 15.1875 -0.40625 11.28125 -3.625 C 7.382812 -6.851562 4.851562 -11.234375 3.6875 -16.765625 L 11.234375 -18.890625 C 11.847656 -15.078125 13.429688 -11.972656 15.984375 -9.578125 C 18.535156 -7.179688 21.59375 -5.984375 25.15625 -5.984375 C 29.019531 -5.984375 32.363281 -7.300781 35.1875 -9.9375 C 38.007812 -12.582031 39.421875 -15.78125 39.421875 -19.53125 C 39.421875 -22.84375 38.347656 -25.554688 36.203125 -27.671875 C 34.054688 -29.796875 30.125 -31.992188 24.40625 -34.265625 C 18.695312 -36.535156 14.414062 -39.082031 11.5625 -41.90625 C 8.707031 -44.738281 7.28125 -48.425781 7.28125 -52.96875 C 7.28125 -58.125 9.179688 -62.359375 12.984375 -65.671875 C 16.796875 -68.992188 21.375 -70.65625 26.71875 -70.65625 C 30.644531 -70.65625 34.128906 -69.734375 37.171875 -67.890625 C 40.210938 -66.046875 42.71875 -63.375 44.6875 -59.875 Z M 38.515625 -55.921875 "/></g></g></g></g></g></g><g clip-path="url(#5ae8accade)"><g transform="matrix(1, 0, 0, 1, 165, 243)"><g clip-path="url(#a0f95d9b77)"><g fill="#d4af3a" fill-opacity="1"><g transform="translate(2.672771, 74.417571)"><g><path d="M 43.015625 -69.46875 L 43.015625 -62.28125 L 14.734375 -62.28125 L 14.734375 -41.640625 L 42.1875 -41.640625 L 42.1875 -34.453125 L 14.734375 -34.453125 L 14.734375 -7.1875 L 43.015625 -7.1875 L 43.015625 0 L 7 0 L 7 -69.46875 Z M 43.015625 -69.46875 "/></g></g></g></g></g></g><g clip-path="url(#9098b0497b)"><g transform="matrix(1, 0, 0, 1, 339, 243)"><g clip-path="url(#9d81a3916f)"><g fill="#d4af3a" fill-opacity="1"><g transform="translate(1.09976, 74.417571)"><g><path d="M 14.734375 -69.46875 L 14.734375 -7.1875 L 33.90625 -7.1875 L 33.90625 0 L 7 0 L 7 -69.46875 Z M 14.734375 -69.46875 "/></g></g></g></g></g></g><g clip-path="url(#2c892e8893)"><g transform="matrix(1, 0, 0, 1, 495, 243)"><g clip-path="url(#125a99278e)"><g fill="#d4af3a" fill-opacity="1"><g transform="translate(2.906825, 74.417571)"><g><path d="M 43.015625 -69.46875 L 43.015625 -62.28125 L 14.734375 -62.28125 L 14.734375 -41.640625 L 42.1875 -41.640625 L 42.1875 -34.453125 L 14.734375 -34.453125 L 14.734375 -7.1875 L 43.015625 -7.1875 L 43.015625 0 L 7 0 L 7 -69.46875 Z M 43.015625 -69.46875 "/></g></g></g></g></g></g><g clip-path="url(#3cb735cab8)"><g transform="matrix(1, 0, 0, 1, 654, 243)"><g clip-path="url(#261dd6c3e0)"><g fill="#d4af3a" fill-opacity="1"><g transform="translate(0.603033, 74.417571)"><g><path d="M 59.96875 -54.265625 C 57.019531 -57.210938 53.71875 -59.484375 50.0625 -61.078125 C 46.414062 -62.671875 42.65625 -63.46875 38.78125 -63.46875 C 33.875 -63.46875 29.238281 -62.144531 24.875 -59.5 C 20.507812 -56.863281 17.066406 -53.332031 14.546875 -48.90625 C 12.035156 -44.488281 10.78125 -39.765625 10.78125 -34.734375 C 10.78125 -29.816406 12.050781 -25.113281 14.59375 -20.625 C 17.144531 -16.144531 20.597656 -12.582031 24.953125 -9.9375 C 29.316406 -7.300781 33.988281 -5.984375 38.96875 -5.984375 C 42.71875 -5.984375 46.414062 -6.78125 50.0625 -8.375 C 53.71875 -9.976562 57.019531 -12.253906 59.96875 -15.203125 L 59.96875 -5.625 C 57.019531 -3.46875 53.75 -1.789062 50.15625 -0.59375 C 46.5625 0.601562 42.925781 1.203125 39.25 1.203125 C 33.101562 1.203125 27.21875 -0.332031 21.59375 -3.40625 C 15.976562 -6.476562 11.484375 -10.773438 8.109375 -16.296875 C 4.734375 -21.828125 3.046875 -27.878906 3.046875 -34.453125 C 3.046875 -40.960938 4.671875 -46.992188 7.921875 -52.546875 C 11.179688 -58.109375 15.617188 -62.515625 21.234375 -65.765625 C 26.859375 -69.023438 32.863281 -70.65625 39.25 -70.65625 C 43.175781 -70.65625 47.007812 -70.007812 50.75 -68.71875 C 54.5 -67.4375 57.570312 -65.8125 59.96875 -63.84375 Z M 59.96875 -54.265625 "/></g></g></g></g></g></g><g clip-path="url(#343b4dba93)"><g transform="matrix(1, 0, 0, 1, 830, 243)"><g clip-path="url(#c5495fec30)"><g fill="#d4af3a" fill-opacity="1"><g transform="translate(0.591579, 74.417571)"><g><path d="M 42.375 -69.46875 L 42.375 -62.28125 L 25.421875 -62.28125 L 25.421875 0 L 17.6875 0 L 17.6875 -62.28125 L 0.921875 -62.28125 L 0.921875 -69.46875 Z M 42.375 -69.46875 "/></g></g></g></g></g></g></g></g></svg>